<svg xmlns="http://www.w3.org/2000/svg" width="1090" height="282" viewBox="0 0 1090 282" role="img" aria-label="Complex aligned CLI table preview">
  <rect width="100%" height="100%" fill="#0d1117"/>
  <style>
    text { font-family: -apple-system, BlinkMacSystemFont, 'Segoe UI', 'Noto Sans CJK SC', 'Noto Sans SC', 'Microsoft YaHei', sans-serif; font-size: 13px; fill: #e6edf3; dominant-baseline: middle; }
    .grid { stroke: #8b949e; stroke-width: 1.1; shape-rendering: crispEdges; fill: none; }
    .header { font-weight: 700; fill: #f0f6fc; }
    .risk-high { fill: #ff7b72; font-weight: 700; }
    .risk-mid { fill: #f2cc60; font-weight: 700; }
    .risk-low { fill: #7ee787; font-weight: 700; }
    .muted { fill: #c9d1d9; }
  </style>
  <g class="grid">
    <rect x="12" y="12" width="1066" height="258"/>
    <line x1="66" y1="12" x2="66" y2="270"/>
    <line x1="144" y1="12" x2="144" y2="270"/>
    <line x1="288" y1="12" x2="288" y2="270"/>
    <line x1="360" y1="12" x2="360" y2="270"/>
    <line x1="432" y1="12" x2="432" y2="270"/>
    <line x1="514" y1="12" x2="514" y2="270"/>
    <line x1="576" y1="12" x2="576" y2="270"/>
    <line x1="12" y1="52" x2="1078" y2="52"/>
    <line x1="12" y1="92" x2="1078" y2="92"/>
    <line x1="12" y1="132" x2="1078" y2="132"/>
    <line x1="12" y1="172" x2="1078" y2="172"/>
    <line x1="12" y1="230" x2="1078" y2="230"/>
  </g>
  <text class="header" x="39.0" y="32.0" text-anchor="middle">序号</text>
  <text class="header" x="105.0" y="32.0" text-anchor="middle">模块</text>
  <text class="header" x="216.0" y="32.0" text-anchor="middle">指标名称</text>
  <text class="header" x="324.0" y="32.0" text-anchor="middle">当前值</text>
  <text class="header" x="396.0" y="32.0" text-anchor="middle">目标值</text>
  <text class="header" x="473.0" y="32.0" text-anchor="middle">趋势</text>
  <text class="header" x="545.0" y="32.0" text-anchor="middle">风险</text>
  <text class="header" x="827.0" y="32.0" text-anchor="middle">说明</text>
  <text x="56.0" y="72.0" text-anchor="end">1</text>
  <text x="76.0" y="72.0" text-anchor="start">进度</text>
  <text x="154.0" y="72.0" text-anchor="start">总体完成率</text>
  <text x="350.0" y="72.0" text-anchor="end">38%</text>
  <text x="422.0" y="72.0" text-anchor="end">50%</text>
  <text x="442.0" y="72.0" text-anchor="start">↗︎ 上升</text>
  <text class="risk-mid" x="545.0" y="72.0" text-anchor="middle">中</text>
  <text x="586.0" y="72.0" text-anchor="start">仍低于计划，后续需要压缩评审、联调和业务确认周期。</text>
  <text x="56.0" y="112.0" text-anchor="end">2</text>
  <text x="76.0" y="112.0" text-anchor="start">成本</text>
  <text x="154.0" y="112.0" text-anchor="start">预算使用率</text>
  <text x="350.0" y="112.0" text-anchor="end">41%</text>
  <text x="422.0" y="112.0" text-anchor="end">≤45%</text>
  <text x="442.0" y="112.0" text-anchor="start">→ 平稳</text>
  <text class="risk-low" x="545.0" y="112.0" text-anchor="middle">低</text>
  <text x="586.0" y="112.0" text-anchor="start">当前暂无超支风险，但采购审批和外包人天需要持续跟踪。</text>
  <text x="56.0" y="152.0" text-anchor="end">3</text>
  <text x="76.0" y="152.0" text-anchor="start">质量</text>
  <text x="154.0" y="152.0" text-anchor="start">缺陷关闭率</text>
  <text x="350.0" y="152.0" text-anchor="end">76%</text>
  <text x="422.0" y="152.0" text-anchor="end">90%</text>
  <text x="442.0" y="152.0" text-anchor="start">↗︎ 上升</text>
  <text class="risk-mid" x="545.0" y="152.0" text-anchor="middle">中</text>
  <text x="586.0" y="152.0" text-anchor="start">需要把阻塞缺陷单独拉清单，明确责任人、修复版本和回归时间。</text>
  <text x="56.0" y="201.0" text-anchor="end">4</text>
  <text x="76.0" y="201.0" text-anchor="start">接口</text>
  <text x="154.0" y="201.0" text-anchor="start">外部接口完成率</text>
  <text x="350.0" y="201.0" text-anchor="end">62%</text>
  <text x="422.0" y="201.0" text-anchor="end">80%</text>
  <text x="442.0" y="201.0" text-anchor="start">↘︎ 下降</text>
  <text class="risk-high" x="545.0" y="201.0" text-anchor="middle">高</text>
  <text x="586.0" y="192.0" text-anchor="start">对方接口文档仍不完整，建议每日同步字段口径并保留Mock兜底方</text>
  <text x="586.0" y="210.0" text-anchor="start">案。</text>
  <text x="56.0" y="250.0" text-anchor="end">5</text>
  <text x="76.0" y="250.0" text-anchor="start">培训</text>
  <text x="154.0" y="250.0" text-anchor="start">关键用户覆盖率</text>
  <text x="350.0" y="250.0" text-anchor="end">68%</text>
  <text x="422.0" y="250.0" text-anchor="end">95%</text>
  <text x="442.0" y="250.0" text-anchor="start">↗︎ 上升</text>
  <text class="risk-mid" x="545.0" y="250.0" text-anchor="middle">中</text>
  <text x="586.0" y="250.0" text-anchor="start">培训材料需根据最终页面截图更新，并补充常见问题与操作边界。</text>
</svg>
